<svg viewBox="0 0 24 24" fill="none" xmlns="http://www.w3.org/2000/svg">
  <g clip-path="url(#clip0_334_193)">
    <path
      d="M22.0615 3.40906C20.8047 2.15234 19.141 1.46546 17.3653 1.46546C15.5896 1.46546 13.9207 2.15742 12.664 3.41415L12.0076 4.0705L11.3411 3.40398C10.0844 2.14725 8.41044 1.4502 6.63474 1.4502C4.86413 1.4502 3.19527 2.14216 1.94363 3.3938C0.686904 4.65053 -0.00506011 6.31938 2.78603e-05 8.09508C2.78603e-05 9.87078 0.69708 11.5345 1.95381 12.7913L11.509 22.3465C11.6413 22.4788 11.8194 22.55 11.9924 22.55C12.1654 22.55 12.3434 22.4839 12.4757 22.3516L22.0513 12.8116C23.308 11.5549 24 9.88605 24 8.11035C24.0051 6.33465 23.3182 4.66579 22.0615 3.40906Z"
      fill="currentColor"
    />
  </g>
  <defs>
    <clipPath id="clip0_334_193">
      <rect width="24" height="24" fill="white" />
    </clipPath>
  </defs>
</svg>
